<?xml version="1.0" encoding="UTF-8"?>
<svg id="Layer_2" xmlns="http://www.w3.org/2000/svg" viewBox="0 0 86.3 65.41">
  <defs>
    <style>
      .cls-1 {
        fill: #fff;
      }
    </style>
  </defs>
  <g id="Layer_1-2" data-name="Layer_1">
    <path id="Discord-Symbol-White" class="cls-1" d="M55.3,0c-.84,1.5-1.6,3.05-2.29,4.63-6.54-.98-13.2-.98-19.76,0-.67-1.58-1.45-3.13-2.29-4.63-6.14,1.05-12.13,2.89-17.81,5.49C1.89,22.17-1.15,38.41.36,54.43c6.59,4.87,13.97,8.59,21.84,10.96,1.77-2.37,3.34-4.9,4.68-7.54-2.55-.95-5.01-2.13-7.37-3.51.62-.45,1.22-.91,1.81-1.36,13.82,6.51,29.82,6.51,43.66,0,.59.48,1.19.95,1.81,1.36-2.36,1.39-4.82,2.56-7.38,3.53,1.34,2.63,2.91,5.16,4.68,7.54,7.86-2.37,15.25-6.08,21.84-10.95,1.79-18.59-3.06-34.7-12.82-48.96C67.45,2.91,61.46,1.07,55.31.03l-.02-.03ZM28.81,44.57c-4.25,0-7.78-3.86-7.78-8.62s3.39-8.64,7.76-8.64,7.85,3.89,7.78,8.64c-.07,4.75-3.42,8.62-7.76,8.62ZM57.48,44.57c-4.27,0-7.76-3.86-7.76-8.62s3.39-8.64,7.76-8.64,7.83,3.89,7.76,8.64c-.07,4.75-3.42,8.62-7.76,8.62Z"/>
  </g>
</svg>