<?xml version="1.0" encoding="UTF-8"?>
<svg id="Layer_2" xmlns="http://www.w3.org/2000/svg" viewBox="0 0 86.3 86.23">
  <defs>
    <style>
      .cls-1 {
        fill: #fff;
      }
    </style>
  </defs>
  <g id="Layer_1-2" data-name="Layer_1">
    <path class="cls-1" d="M43.15,0c-11.72,0-13.19.05-17.79.26-4.59.21-7.73.94-10.47,2-2.84,1.1-5.25,2.57-7.64,4.97-2.4,2.4-3.87,4.8-4.98,7.64-1.07,2.74-1.8,5.88-2,10.46-.21,4.6-.26,6.07-.26,17.78s.05,13.17.26,17.77c.21,4.59.94,7.72,2,10.46,1.1,2.84,2.58,5.24,4.98,7.64,2.4,2.4,4.8,3.88,7.64,4.98,2.75,1.07,5.88,1.79,10.47,2,4.6.21,6.07.26,17.79.26s13.19-.05,17.79-.26c4.59-.21,7.73-.94,10.48-2,2.84-1.1,5.24-2.58,7.64-4.98,2.4-2.4,3.87-4.8,4.98-7.64,1.06-2.74,1.79-5.88,2-10.46.21-4.6.26-6.07.26-17.77s-.05-13.18-.26-17.78c-.22-4.59-.94-7.72-2-10.46-1.11-2.84-2.58-5.24-4.98-7.64-2.4-2.4-4.8-3.87-7.64-4.97-2.75-1.07-5.89-1.79-10.48-2C56.33.05,54.86,0,43.14,0h.01ZM39.28,7.77c1.15,0,2.43,0,3.87,0,11.52,0,12.89.04,17.44.25,4.21.19,6.49.89,8.01,1.48,2.01.78,3.45,1.72,4.96,3.22,1.51,1.51,2.45,2.95,3.23,4.96.59,1.52,1.29,3.8,1.49,8,.21,4.55.25,5.91.25,17.42s-.04,12.87-.25,17.42c-.19,4.2-.9,6.49-1.49,8-.78,2.01-1.72,3.44-3.23,4.95-1.51,1.51-2.94,2.44-4.96,3.22-1.52.59-3.8,1.29-8.01,1.49-4.55.21-5.91.25-17.44.25s-12.89-.04-17.44-.25c-4.21-.19-6.49-.9-8.01-1.49-2.01-.78-3.45-1.72-4.96-3.22-1.51-1.51-2.45-2.94-3.23-4.96-.59-1.52-1.29-3.8-1.49-8-.21-4.55-.25-5.91-.25-17.42s.04-12.87.25-17.42c.19-4.2.9-6.49,1.49-8.01.78-2.01,1.72-3.45,3.23-4.96,1.51-1.51,2.95-2.44,4.96-3.23,1.52-.59,3.81-1.29,8.01-1.49,3.98-.18,5.52-.23,13.56-.24h0ZM66.18,14.93c-2.86,0-5.18,2.31-5.18,5.17s2.32,5.17,5.18,5.17,5.18-2.32,5.18-5.17-2.32-5.17-5.18-5.17h0ZM43.15,20.97c-12.24,0-22.16,9.91-22.16,22.14s9.92,22.14,22.16,22.14,22.15-9.91,22.15-22.14-9.92-22.14-22.16-22.14h0ZM43.15,28.74c7.94,0,14.38,6.43,14.38,14.37s-6.44,14.37-14.38,14.37-14.38-6.44-14.38-14.37,6.44-14.37,14.38-14.37h0Z"/>
  </g>
</svg>