<?xml version="1.0" encoding="UTF-8"?>
<svg id="Layer_2" xmlns="http://www.w3.org/2000/svg" viewBox="0 0 86.3 61.32">
  <defs>
    <style>
      .cls-1 {
        fill: #fff;
      }
    </style>
  </defs>
  <g id="Layer_1-2" data-name="Layer_1">
    <g>
      <path class="cls-1" d="M0,7.73v.69c0,15,0,29.99,0,44.99,0,.15,0,.31,0,.46.04,1.75.57,3.33,1.63,4.72.92,1.2,2.09,2.04,3.54,2.47.7.21,1.42.26,2.15.26,23.87,0,47.75,0,71.62,0,.15,0,.31,0,.46,0,1.14,0,2.19-.31,3.17-.89,1.43-.84,2.44-2.06,3.08-3.58.44-1.05.64-2.15.64-3.29,0-14.92,0-29.84,0-44.76,0-.11,0-.22,0-.32,0-.07.02-.16-.12-.21-14.33,8.37-28.67,16.75-43.04,25.14-.64-.38-1.26-.75-1.88-1.12-.62-.37-1.24-.74-1.87-1.11s-1.24-.74-1.87-1.11c-.64-.38-1.27-.76-1.91-1.14-.62-.37-1.24-.74-1.87-1.11-.62-.37-1.24-.74-1.87-1.11-.62-.37-1.24-.74-1.87-1.11-.62-.37-1.24-.74-1.87-1.11-.62-.37-1.24-.74-1.87-1.11-.62-.37-1.24-.74-1.87-1.11-.62-.37-1.24-.74-1.87-1.11-.64-.38-1.27-.76-1.91-1.14-.62-.37-1.24-.74-1.87-1.11-.62-.37-1.24-.74-1.87-1.11-.62-.37-1.24-.74-1.87-1.11-.62-.37-1.24-.74-1.87-1.11-.62-.37-1.24-.74-1.87-1.11-.62-.37-1.24-.74-1.87-1.11-.62-.37-1.24-.74-1.87-1.11-.64-.38-1.27-.76-1.91-1.14-.62-.37-1.24-.74-1.87-1.11-.62-.37-1.24-.74-1.87-1.11-.62-.37-1.23-.75-1.94-1.14ZM1.47,2.99s.02.06.02.07c0,.01.02.03.03.03.05.04.1.07.15.1,13.81,8.22,27.61,16.45,41.42,24.67.01,0,.03.01.04.01.01,0,.03,0,.08,0,13.9-8.12,27.83-16.26,41.75-24.4.04-.02.06-.07.1-.11-.03-.06-.05-.11-.08-.16-.7-1.06-1.6-1.91-2.74-2.49C81.27.22,80.22,0,79.13,0,55.17,0,31.22,0,7.27,0c-.14,0-.28-.01-.42,0-.37.03-.74.05-1.1.12-1.74.35-3.11,1.29-4.18,2.69-.04.06-.08.13-.1.17Z"/>
      <path class="cls-1" d="M0,7.73c.72.38,1.32.77,1.94,1.14.62.37,1.24.74,1.87,1.11.62.37,1.24.74,1.87,1.11.64.38,1.27.76,1.91,1.14.62.37,1.24.74,1.87,1.11.62.37,1.24.74,1.87,1.11.62.37,1.24.74,1.87,1.11.62.37,1.24.74,1.87,1.11.62.37,1.24.74,1.87,1.11.62.37,1.24.74,1.87,1.11.62.37,1.24.74,1.87,1.11.64.38,1.27.76,1.91,1.14.62.37,1.24.74,1.87,1.11.62.37,1.24.74,1.87,1.11.62.37,1.24.74,1.87,1.11.62.37,1.24.74,1.87,1.11.62.37,1.24.74,1.87,1.11.62.37,1.24.74,1.87,1.11.62.37,1.24.74,1.87,1.11.64.38,1.27.76,1.91,1.14.62.37,1.24.74,1.87,1.11s1.24.74,1.87,1.11c.62.37,1.24.74,1.88,1.12,14.37-8.39,28.71-16.78,43.04-25.14.14.06.12.14.12.21,0,.11,0,.22,0,.32,0,14.92,0,29.84,0,44.76,0,1.14-.19,2.24-.64,3.29-.64,1.52-1.65,2.74-3.08,3.58-.98.57-2.03.88-3.17.89-.15,0-.31,0-.46,0-23.87,0-47.75,0-71.62,0-.73,0-1.45-.05-2.15-.26-1.45-.44-2.62-1.28-3.54-2.47C.57,57.2.04,55.62,0,53.87c0-.15,0-.31,0-.46,0-15,0-29.99,0-44.99v-.69Z"/>
      <path class="cls-1" d="M1.47,2.99s.06-.11.1-.17C2.64,1.41,4.01.48,5.75.13c.36-.07.73-.09,1.1-.12.14-.01.28,0,.42,0,23.95,0,47.9,0,71.86,0,1.1,0,2.14.21,3.12.72,1.14.58,2.04,1.43,2.74,2.49.03.05.06.11.08.16-.04.04-.06.09-.1.11-13.93,8.14-27.85,16.28-41.75,24.4-.05,0-.07,0-.08,0-.02,0-.03,0-.04-.01C29.29,19.65,15.48,11.42,1.68,3.2c-.05-.03-.1-.07-.15-.1-.01,0-.02-.02-.03-.03,0-.01,0-.03-.02-.07Z"/>
    </g>
  </g>
</svg>